<svg xmlns="http://www.w3.org/2000/svg" viewBox="0 0 200 200">
  <defs>
    <linearGradient id="gradient" x1="0%" y1="0%" x2="100%" y2="100%">
      <stop offset="0%" style="stop-color:#003d82;"/>
      <stop offset="100%" style="stop-color:#0056b3;"/>
    </linearGradient>
  </defs>
  <path d="M100 10C48.6 10 7 51.6 7 103s41.6 93 93 93c25.4 0 48.8-10.3 65.8-27.3l-29.5-29.5c-9.8 9.8-23.3 15.8-38.3 15.8-29.8 0-54-24.2-54-54s24.2-54 54-54c15 0 28.5 6.1 38.3 15.8l29.5-29.5C148.8 20.3 125.4 10 100 10z" fill="url(#gradient)"/>
  <path d="M100 49c-29.8 0-54 24.2-54 54s24.2 54 54 54c15 0 28.5-6.1 38.3-15.8l-19.2-19.2c-4.9 4.9-11.7 7.9-19.2 7.9-14.9 0-27-12.1-27-27s12.1-27 27-27c7.5 0 14.3 3 19.2 7.9l19.2-19.2C128.5 55.1 115 49 100 49z" fill="#4da3ff"/>
</svg>